<svg width="32" height="32" viewBox="0 0 32 32" fill="none" xmlns="http://www.w3.org/2000/svg">
<g id="Bot">
<path id="Vector" d="M16 2.66667V9.33333M16 9.33333H13.3333C10.8516 9.33333 9.61077 9.33333 8.60655 9.65962C6.57697 10.3191 4.98574 11.9103 4.32629 13.9399C4 14.9441 4 16.185 4 18.6667C4 21.1484 4 22.3892 4.32629 23.3934C4.98574 25.423 6.57697 27.0143 8.60655 27.6737C9.61077 28 10.8516 28 13.3333 28H18.6667C21.1484 28 22.3892 28 23.3934 27.6737C25.423 27.0143 27.0143 25.423 27.6737 23.3934C28 22.3892 28 21.1484 28 18.6667C28 16.185 28 14.9441 27.6737 13.9399C27.0143 11.9103 25.423 10.3191 23.3934 9.65962C22.3892 9.33333 21.1484 9.33333 18.6667 9.33333H16ZM12 18.6667C11.2636 18.6667 10.6667 18.0697 10.6667 17.3333C10.6667 16.597 11.2636 16 12 16C12.7364 16 13.3333 16.597 13.3333 17.3333C13.3333 18.0697 12.7364 18.6667 12 18.6667ZM20 18.6667C19.2636 18.6667 18.6667 18.0697 18.6667 17.3333C18.6667 16.597 19.2636 16 20 16C20.7364 16 21.3333 16.597 21.3333 17.3333C21.3333 18.0697 20.7364 18.6667 20 18.6667Z" stroke="white" stroke-width="2" stroke-linecap="round" stroke-linejoin="round"/>
</g>
</svg>
