<svg width="24" height="24" viewBox="0 0 24 24" fill="none" xmlns="http://www.w3.org/2000/svg">
<g id="Icon Frame">
<path id="Vector" d="M12.4707 12.5C11.5165 13.451 10.403 14.2423 9.17383 14.8305L7.65454 13.3112C6.81832 13.6397 5.92713 13.8587 4.99859 13.9508C4.449 14.0053 4.00017 14.4477 4.00017 15V16C4.00017 18.2091 5.81871 20.0513 7.95957 19.5063C11.9873 18.481 15.4046 15.9277 17.5581 12.5" stroke="#015EB0" stroke-width="2" stroke-linecap="round" stroke-linejoin="round"/>
<path id="Vector_2" d="M12.4705 12.5C13.4346 11.5392 14.2362 10.4155 14.8305 9.17367L13.3112 7.65438C13.6397 6.81816 13.8587 5.92696 13.9508 4.99842C14.0053 4.44883 14.4477 4 15 4H16C18.2091 4 20.0514 5.81817 19.5064 7.95904C19.0921 9.58674 18.4282 11.1148 17.5579 12.5" stroke="#C61764" stroke-width="2" stroke-linecap="round" stroke-linejoin="round"/>
</g>
</svg>
