<svg width="28" height="29" viewBox="0 0 28 29" fill="none" xmlns="http://www.w3.org/2000/svg">
<circle cx="14" cy="14.5" r="14" fill="#8301B0"/>
<g clip-path="url(#clip0_429_16971)">
<path d="M11.1875 7.5C11.1875 6.12109 12.3086 5 13.6875 5H14.3125C15.6915 5 16.8125 6.12109 16.8125 7.5V10.1289L19.0899 8.81641C20.2852 8.125 21.8165 8.53516 22.504 9.73047L22.8165 10.2734C23.5079 11.4688 23.0977 13 21.9024 13.6875L19.625 15L21.9024 16.3125C23.0977 17.0039 23.5079 18.5312 22.8165 19.7266L22.504 20.2695C21.8125 21.4648 20.2852 21.875 19.0899 21.1836L16.8125 19.8711V22.5C16.8125 23.8789 15.6915 25 14.3125 25H13.6875C12.3086 25 11.1875 23.8789 11.1875 22.5V19.8711L8.9102 21.1836C7.71489 21.875 6.18755 21.4648 5.49614 20.2695L5.18364 19.7266C4.49223 18.5312 4.90239 17 6.0977 16.3125L8.37505 15L6.0977 13.6875C4.90239 12.9961 4.49223 11.4688 5.18364 10.2734L5.49614 9.73047C6.18755 8.53516 7.71489 8.125 8.9102 8.8125L11.1875 10.1289V7.5ZM13.6875 6.875C13.3438 6.875 13.0625 7.15625 13.0625 7.5V11.7539C13.0625 12.0898 12.8829 12.3984 12.5938 12.5664C12.3047 12.7344 11.9454 12.7344 11.6563 12.5664L7.9727 10.4414C7.67192 10.2695 7.29302 10.3711 7.11723 10.6719L6.80473 11.2148C6.63286 11.5156 6.73442 11.8945 7.0352 12.0703L10.7188 14.1875C11.0079 14.3555 11.1875 14.6641 11.1875 15C11.1875 15.3359 11.0079 15.6445 10.7188 15.8125L7.0352 17.9375C6.73442 18.1094 6.63286 18.4922 6.80473 18.793L7.11723 19.3359C7.28911 19.6367 7.67192 19.7383 7.9727 19.5664L11.6563 17.4375C11.9454 17.2695 12.3047 17.2695 12.5938 17.4375C12.8829 17.6055 13.0625 17.9141 13.0625 18.25V22.5C13.0625 22.8438 13.3438 23.125 13.6875 23.125H14.3125C14.6563 23.125 14.9375 22.8438 14.9375 22.5V18.2461C14.9375 17.9102 15.1172 17.6016 15.4063 17.4336C15.6954 17.2656 16.0547 17.2656 16.3438 17.4336L20.0274 19.5586C20.3282 19.7305 20.7071 19.6289 20.8829 19.3281L21.1954 18.7852C21.3672 18.4844 21.2657 18.1055 20.9649 17.9297L17.2813 15.8125C16.9922 15.6445 16.8125 15.3359 16.8125 15C16.8125 14.6641 16.9922 14.3555 17.2813 14.1875L20.9649 12.0625C21.2657 11.8906 21.3672 11.5078 21.1954 11.207L20.8829 10.6641C20.711 10.3633 20.3282 10.2617 20.0274 10.4336L16.3438 12.5625C16.0547 12.7305 15.6954 12.7305 15.4063 12.5625C15.1172 12.3945 14.9375 12.0859 14.9375 11.75V7.5C14.9375 7.15625 14.6563 6.875 14.3125 6.875H13.6875Z" fill="white"/>
</g>
<defs>
<clipPath id="clip0_429_16971">
<rect width="20" height="20" fill="white" transform="translate(4 5)"/>
</clipPath>
</defs>
</svg>
