<svg width="16" height="16" viewBox="0 0 16 16" fill="none" xmlns="http://www.w3.org/2000/svg">
<path d="M10.7954 12.5772C10.8907 12.5779 10.9994 12.5857 11.2164 12.6012L12.5084 12.6935C13.0229 12.7302 13.2801 12.7486 13.4725 12.6574C13.6413 12.5773 13.7773 12.4413 13.8574 12.2725C13.9486 12.0801 13.9302 11.8229 13.8935 11.3084L13.8012 10.0164C13.7857 9.79928 13.7779 9.69071 13.7772 9.59537C13.776 9.44048 13.774 9.49586 13.786 9.34143C13.7933 9.24636 13.8444 8.88525 13.9465 8.16303C13.9818 7.91376 14 7.65901 14 7.4C14 4.41766 11.5823 2 8.6 2C6.47977 2 4.64493 3.22194 3.76131 5M9.2 10.4C9.2 8.41178 7.58823 6.8 5.6 6.8C4.68216 6.8 3.84455 7.14348 3.20869 7.70892C2.46715 8.36834 2 9.32961 2 10.4C2 10.5942 2.01538 10.7848 2.04498 10.9707C2.10863 11.3703 2.14046 11.5701 2.14597 11.6318C2.15425 11.7244 2.15335 11.7037 2.15312 11.7966C2.15296 11.8586 2.14765 11.933 2.13702 12.0817L2.07103 13.0056C2.04653 13.3486 2.03428 13.5201 2.09508 13.6483C2.14845 13.7609 2.23911 13.8515 2.35169 13.9049C2.47993 13.9657 2.65142 13.9535 2.99439 13.929L3.91827 13.863C4.06705 13.8524 4.14144 13.847 4.20336 13.8469C4.2963 13.8466 4.27565 13.8458 4.36821 13.854C4.42988 13.8595 4.62981 13.8914 5.0293 13.955C5.21517 13.9846 5.40579 14 5.6 14C6.67039 14 7.63166 13.5329 8.29108 12.7913C8.85652 12.1555 9.2 11.3178 9.2 10.4Z" stroke="#00539F" stroke-width="1.5" stroke-linecap="round" stroke-linejoin="round"/>
</svg>
