<svg width="21" height="20" viewBox="0 0 21 20" fill="none" xmlns="http://www.w3.org/2000/svg">
<path d="M3 10C3 7.67029 3 6.50544 3.3806 5.58658C3.88807 4.36144 4.86144 3.38807 6.08658 2.8806C7.00544 2.5 8.17029 2.5 10.5 2.5C12.8297 2.5 13.9946 2.5 14.9134 2.8806C16.1386 3.38807 17.1119 4.36144 17.6194 5.58658C18 6.50544 18 7.67029 18 10C18 12.3297 18 13.4946 17.6194 14.4134C17.1119 15.6386 16.1386 16.6119 14.9134 17.1194C13.9946 17.5 12.8297 17.5 10.5 17.5C8.17029 17.5 7.00544 17.5 6.08658 17.1194C4.86144 16.6119 3.88807 15.6386 3.3806 14.4134C3 13.4946 3 12.3297 3 10Z" stroke="#BB1865" stroke-width="2" stroke-linecap="round" stroke-linejoin="round"/>
<path d="M8.41667 9.91333C8.41667 8.72012 8.41667 8.12351 8.66602 7.79044C8.88332 7.50019 9.21595 7.31859 9.57761 7.29276C9.99263 7.26312 10.4945 7.58574 11.4982 8.23097L11.633 8.31764C12.504 8.87755 12.9394 9.1575 13.0899 9.51348C13.2213 9.82451 13.2213 10.1755 13.0899 10.4865C12.9394 10.8425 12.504 11.1225 11.633 11.6824L11.4982 11.769C10.4945 12.4143 9.99263 12.7369 9.57761 12.7072C9.21595 12.6814 8.88332 12.4998 8.66602 12.2096C8.41667 11.8765 8.41667 11.2799 8.41667 10.0867V9.91333Z" stroke="#BB1865" stroke-width="2" stroke-linecap="round" stroke-linejoin="round"/>
</svg>
