<svg width="16" height="16" viewBox="0 0 16 16" fill="none" xmlns="http://www.w3.org/2000/svg">
<path d="M14.6187 7.33332H11.282C10.9421 7.33332 10.6666 7.60884 10.6666 7.94871C10.6666 9.0816 9.7482 9.99999 8.6153 9.99999H7.38454C6.25164 9.99999 5.33325 9.0816 5.33325 7.94871C5.33325 7.60884 5.05773 7.33332 4.71787 7.33332H1.38113M14.6187 7.33332C14.6075 7.2928 14.5945 7.2528 14.5795 7.21347C14.5425 7.11623 14.4902 7.02461 14.3855 6.84143L13.2284 4.81646C12.781 4.03348 12.5573 3.64199 12.2429 3.35717C11.9648 3.10518 11.6366 2.91473 11.2798 2.79828C10.8766 2.66666 10.4257 2.66666 9.52388 2.66666H6.47596C5.57416 2.66666 5.12326 2.66666 4.72001 2.79828C4.36323 2.91473 4.03505 3.10518 3.75693 3.35717C3.44258 3.64199 3.21888 4.03348 2.77146 4.81646L1.61433 6.84143C1.50965 7.02462 1.45731 7.11622 1.42033 7.21347C1.40537 7.2528 1.39229 7.2928 1.38113 7.33332M14.6187 7.33332C14.632 7.38174 14.6426 7.43091 14.6504 7.48059C14.6666 7.58337 14.6666 7.68887 14.6666 7.89986V7.99999C14.6666 9.86683 14.6666 10.8003 14.3033 11.5133C13.9837 12.1405 13.4738 12.6504 12.8466 12.97C12.1335 13.3333 11.2001 13.3333 9.33325 13.3333H6.66659C4.79974 13.3333 3.86632 13.3333 3.15328 12.97C2.52608 12.6504 2.01614 12.1405 1.69656 11.5133C1.33325 10.8003 1.33325 9.86683 1.33325 7.99999V7.89986C1.33325 7.68887 1.33325 7.58337 1.34939 7.48059C1.35719 7.43091 1.36779 7.38174 1.38113 7.33332" stroke="#00539F" stroke-width="1.5" stroke-linecap="round" stroke-linejoin="round"/>
</svg>
