<svg width="16" height="16" viewBox="0 0 16 16" fill="none" xmlns="http://www.w3.org/2000/svg">
<path d="M11.3333 12C11.3333 11.6318 11.6317 11.3333 11.9999 11.3333C12.3681 11.3333 12.6666 11.6318 12.6666 12C12.6666 12.3682 12.3681 12.6667 11.9999 12.6667C11.6317 12.6667 11.3333 12.3682 11.3333 12Z" stroke="#14181F" stroke-width="1.2" stroke-linecap="round" stroke-linejoin="round"/>
<path d="M7.33325 12C7.33325 11.6318 7.63173 11.3333 7.99992 11.3333C8.36811 11.3333 8.66659 11.6318 8.66659 12C8.66659 12.3682 8.36811 12.6667 7.99992 12.6667C7.63173 12.6667 7.33325 12.3682 7.33325 12Z" stroke="#14181F" stroke-width="1.2" stroke-linecap="round" stroke-linejoin="round"/>
<path d="M3.33325 12C3.33325 11.6318 3.63173 11.3333 3.99992 11.3333C4.36811 11.3333 4.66659 11.6318 4.66659 12C4.66659 12.3682 4.36811 12.6667 3.99992 12.6667C3.63173 12.6667 3.33325 12.3682 3.33325 12Z" stroke="#14181F" stroke-width="1.2" stroke-linecap="round" stroke-linejoin="round"/>
<path d="M11.3333 8.00001C11.3333 7.63182 11.6317 7.33334 11.9999 7.33334C12.3681 7.33334 12.6666 7.63182 12.6666 8.00001C12.6666 8.3682 12.3681 8.66668 11.9999 8.66668C11.6317 8.66668 11.3333 8.3682 11.3333 8.00001Z" stroke="#14181F" stroke-width="1.2" stroke-linecap="round" stroke-linejoin="round"/>
<path d="M7.33325 8.00001C7.33325 7.63182 7.63173 7.33334 7.99992 7.33334C8.36811 7.33334 8.66659 7.63182 8.66659 8.00001C8.66659 8.3682 8.36811 8.66668 7.99992 8.66668C7.63173 8.66668 7.33325 8.3682 7.33325 8.00001Z" stroke="#14181F" stroke-width="1.2" stroke-linecap="round" stroke-linejoin="round"/>
<path d="M3.33325 8.00001C3.33325 7.63182 3.63173 7.33334 3.99992 7.33334C4.36811 7.33334 4.66659 7.63182 4.66659 8.00001C4.66659 8.3682 4.36811 8.66668 3.99992 8.66668C3.63173 8.66668 3.33325 8.3682 3.33325 8.00001Z" stroke="#14181F" stroke-width="1.2" stroke-linecap="round" stroke-linejoin="round"/>
<path d="M11.3333 4.00001C11.3333 3.63182 11.6317 3.33334 11.9999 3.33334C12.3681 3.33334 12.6666 3.63182 12.6666 4.00001C12.6666 4.3682 12.3681 4.66668 11.9999 4.66668C11.6317 4.66668 11.3333 4.3682 11.3333 4.00001Z" stroke="#14181F" stroke-width="1.2" stroke-linecap="round" stroke-linejoin="round"/>
<path d="M7.33325 4.00001C7.33325 3.63182 7.63173 3.33334 7.99992 3.33334C8.36811 3.33334 8.66659 3.63182 8.66659 4.00001C8.66659 4.3682 8.36811 4.66668 7.99992 4.66668C7.63173 4.66668 7.33325 4.3682 7.33325 4.00001Z" stroke="#14181F" stroke-width="1.2" stroke-linecap="round" stroke-linejoin="round"/>
<path d="M3.33325 4.00001C3.33325 3.63182 3.63173 3.33334 3.99992 3.33334C4.36811 3.33334 4.66659 3.63182 4.66659 4.00001C4.66659 4.3682 4.36811 4.66668 3.99992 4.66668C3.63173 4.66668 3.33325 4.3682 3.33325 4.00001Z" stroke="#14181F" stroke-width="1.2" stroke-linecap="round" stroke-linejoin="round"/>
</svg>
