<svg width="28" height="29" viewBox="0 0 28 29" fill="none" xmlns="http://www.w3.org/2000/svg">
<circle cx="14" cy="14.5" r="14" fill="#0132B0"/>
<g clip-path="url(#clip0_429_16963)">
<path d="M5.25 8.74998H17.75V6.24998C17.75 5.74607 18.0547 5.28904 18.5234 5.09373C18.9922 4.89841 19.5273 5.00779 19.8867 5.36326L23.6367 9.11326C23.8711 9.34763 24.0039 9.66404 24.0039 9.99607C24.0039 10.3281 23.8711 10.6445 23.6367 10.8789L19.8867 14.6289C19.5273 14.9883 18.9922 15.0937 18.5234 14.8984C18.0547 14.7031 17.75 14.25 17.75 13.7422V11.25H5.25C4.55859 11.25 4 10.6914 4 9.99998C4 9.30857 4.55859 8.74998 5.25 8.74998ZM22.75 18.75C23.4414 18.75 24 19.3086 24 20C24 20.6914 23.4414 21.25 22.75 21.25H10.25V23.75C10.25 24.2539 9.94531 24.7109 9.47656 24.9062C9.00781 25.1015 8.47266 24.9922 8.11328 24.6367L4.36328 20.8867C4.12891 20.6523 3.99609 20.3359 3.99609 20.0039C3.99609 19.6719 4.12891 19.3554 4.36328 19.1211L8.11328 15.3711C8.47266 15.0117 9.00781 14.9062 9.47656 15.1015C9.94531 15.2969 10.25 15.75 10.25 16.2578V18.7578H22.75V18.75Z" fill="white"/>
</g>
<defs>
<clipPath id="clip0_429_16963">
<rect width="20" height="20" fill="white" transform="translate(4 5)"/>
</clipPath>
</defs>
</svg>
