<svg width="20" height="17" viewBox="0 0 20 17" fill="none" xmlns="http://www.w3.org/2000/svg">
<g id="Icon/Solid/Volume Up">
<path id="Vector" d="M8.71049 3.60065V14.5026C8.71049 15.1983 7.86864 15.541 7.38099 15.0534L4.49392 12.1669H1.18212C0.751994 12.1669 0.40332 11.8182 0.40332 11.3881V6.71529C0.40332 6.28516 0.751994 5.93649 1.18212 5.93649H4.49392L7.38102 3.04994C7.86809 2.56287 8.71049 2.90424 8.71049 3.60065ZM14.6182 1.07358C14.129 0.774363 13.4898 0.928435 13.1906 1.41768C12.8913 1.90693 13.0454 2.54609 13.5347 2.84531C15.6212 4.12134 17.0177 6.42269 17.0177 9.05168C17.0177 11.4345 15.847 13.669 13.886 15.0291C13.4148 15.356 13.2977 16.003 13.6246 16.4742C13.9515 16.9456 14.5986 17.0624 15.0696 16.7357C17.5899 14.9876 19.0945 12.1151 19.0945 9.05168C19.0945 5.70142 17.3234 2.72794 14.6182 1.07358ZM15.9793 9.05168C15.9793 6.82734 14.8062 4.84043 12.9953 3.73311C12.5061 3.43392 11.8669 3.58803 11.5677 4.07731C11.2685 4.56659 11.4226 5.20572 11.9119 5.50491C13.1583 6.26709 13.9025 7.59299 13.9025 9.05168C13.9025 10.4134 13.2334 11.6905 12.1126 12.4679C11.6414 12.7947 11.5244 13.4417 11.8512 13.9129C12.0529 14.2037 12.3764 14.3596 12.7053 14.3596C12.9166 14.3597 13.1228 14.295 13.2962 14.1744C14.9763 13.009 15.9793 11.094 15.9793 9.05168ZM12.8641 9.05168C12.8641 7.95757 12.3064 6.96353 11.3723 6.39261C10.883 6.09361 10.2438 6.24778 9.94476 6.73709C9.64567 7.22641 9.7999 7.86554 10.2892 8.16463C10.6011 8.35524 10.7873 8.68685 10.7873 9.05168C10.7872 9.21969 10.7464 9.38517 10.6684 9.53398C10.5904 9.68278 10.4775 9.81048 10.3394 9.90615C9.86811 10.2329 9.7509 10.8798 10.0776 11.3511C10.4044 11.8225 11.0514 11.9397 11.5226 11.6129C12.3626 11.0306 12.8641 10.0731 12.8641 9.05168Z" fill="white"/>
</g>
</svg>
