<svg width="28" height="29" viewBox="0 0 28 29" fill="none" xmlns="http://www.w3.org/2000/svg">
<circle cx="14" cy="14.5" r="14" fill="#1AB001"/>
<g clipPath="url(#clip0_429_16988)">
<path d="M14 23.125C18.4883 23.125 22.125 19.4883 22.125 15C22.125 10.5117 18.4883 6.875 14 6.875C9.51172 6.875 5.875 10.5117 5.875 15C5.875 15.6914 5.96094 16.3594 6.125 17C5.59375 17.3984 5.25 18.0352 5.25 18.75V19.8438C4.45312 18.4102 4 16.7578 4 15C4 9.47656 8.47656 5 14 5C19.5234 5 24 9.47656 24 15C24 20.5234 19.5234 25 14 25C13.5859 25 13.1758 24.9766 12.7734 24.9258C12.9297 24.7031 13.0586 24.457 13.1562 24.1914L13.5508 23.1094C13.6992 23.1172 13.8516 23.1211 14.0039 23.1211L14 23.125ZM15.6797 16.918C15.293 16.8398 14.8789 16.8672 14.4805 17.0156L13.293 17.4609L10.7344 16.8594C10.3984 16.7812 10.1914 16.4453 10.2695 16.1094C10.3477 15.7734 10.6836 15.5664 11.0195 15.6445L14.8125 16.5352C15.1328 16.6094 15.4258 16.7422 15.6836 16.918H15.6797ZM9.64062 12.5C9.64062 12.1685 9.77232 11.8505 10.0067 11.6161C10.2412 11.3817 10.5591 11.25 10.8906 11.25C11.2221 11.25 11.5401 11.3817 11.7745 11.6161C12.0089 11.8505 12.1406 12.1685 12.1406 12.5C12.1406 12.8315 12.0089 13.1495 11.7745 13.3839C11.5401 13.6183 11.2221 13.75 10.8906 13.75C10.5591 13.75 10.2412 13.6183 10.0067 13.3839C9.77232 13.1495 9.64062 12.8315 9.64062 12.5ZM17.1406 11.875C17.4721 11.875 17.7901 12.0067 18.0245 12.2411C18.2589 12.4755 18.3906 12.7935 18.3906 13.125C18.3906 13.4565 18.2589 13.7745 18.0245 14.0089C17.7901 14.2433 17.4721 14.375 17.1406 14.375C16.8091 14.375 16.4912 14.2433 16.2567 14.0089C16.0223 13.7745 15.8906 13.4565 15.8906 13.125C15.8906 12.7935 16.0223 12.4755 16.2567 12.2411C16.4912 12.0067 16.8091 11.875 17.1406 11.875ZM12.4531 10.6562C11.6523 9.96875 10.5039 9.85938 9.58594 10.3828L9.30859 10.5391C9.00781 10.7109 8.62891 10.6055 8.45703 10.3047C8.28516 10.0039 8.39062 9.625 8.69141 9.45312L8.96875 9.29688C10.3438 8.51172 12.0664 8.67578 13.2695 9.70703L13.7852 10.1484C14.0469 10.375 14.0781 10.7695 13.8516 11.0312C13.625 11.293 13.2305 11.3242 12.9688 11.0977L12.4531 10.6562ZM8.375 18.75V20.6406L14.9219 18.1875C15.4062 18.0039 15.9453 18.25 16.1289 18.7344C16.3125 19.2188 16.0664 19.7578 15.582 19.9414L13.0195 20.8984C13.0156 20.9141 13.0078 20.9297 13.0039 20.9453L11.9766 23.7656C11.707 24.5078 11.0039 25 10.2148 25H8.375C7.33984 25 6.5 24.1602 6.5 23.125V18.75C6.5 18.2305 6.91797 17.8125 7.4375 17.8125C7.95703 17.8125 8.375 18.2305 8.375 18.75Z" fill="white"/>
</g>
<defs>
<clipPath id="clip0_429_16988">
<rect width="20" height="20" fill="white" transform="translate(4 5)"/>
</clipPath>
</defs>
</svg>
