<svg width="28" height="29" viewBox="0 0 28 29" fill="none" xmlns="http://www.w3.org/2000/svg">
<circle cx="14" cy="14.5" r="14" fill="#B0019F"/>
<g clip-path="url(#clip0_429_16979)">
<g clip-path="url(#clip1_429_16979)">
<path d="M4.50017 7.5C4.50017 6.83696 4.76356 6.20107 5.2324 5.73223C5.70124 5.26339 6.33713 5 7.00017 5C7.66321 5 8.29909 5.26339 8.76793 5.73223C9.23677 6.20107 9.50017 6.83696 9.50017 7.5C9.50017 8.16304 9.23677 8.79893 8.76793 9.26777C8.29909 9.73661 7.66321 10 7.00017 10C6.33713 10 5.70124 9.73661 5.2324 9.26777C4.76356 8.79893 4.50017 8.16304 4.50017 7.5ZM6.12517 13.125C5.47673 13.125 4.93376 13.625 4.87907 14.2695L4.71892 16.1953C4.68767 16.5625 4.97673 16.875 5.34392 16.875H5.43767H7.00017C7.00017 17.4336 7.21501 17.9961 7.64079 18.4219L9.50017 20.2812V24.0625C9.50017 24.582 9.0822 25 8.56267 25C8.04314 25 7.62517 24.582 7.62517 24.0625V18.75H6.37517V24.0625C6.37517 24.582 5.9572 25 5.43767 25C4.91814 25 4.50017 24.582 4.50017 24.0625V18.6055C3.46501 18.2344 2.75407 17.207 2.85173 16.043L3.01189 14.1172C3.1447 12.4961 4.50017 11.25 6.12517 11.25H7.87517C8.92985 11.25 9.86735 11.7734 10.4338 12.582C10.3322 12.6523 10.2306 12.7383 10.1408 12.8281L9.04314 13.9258C8.86345 13.4531 8.40642 13.125 7.87517 13.125H6.12517ZM19.5002 24.0625V20.2812L21.3595 18.4219C21.7853 17.9961 22.0002 17.4336 22.0002 16.875H23.5627H23.6564C24.0236 16.875 24.3088 16.5625 24.2775 16.1992L24.1174 14.2734C24.0666 13.625 23.5236 13.125 22.8752 13.125H21.1252C20.5978 13.125 20.1408 13.4531 19.9572 13.9258L18.8595 12.8281C18.7658 12.7344 18.6681 12.6523 18.5666 12.582C19.133 11.7734 20.0744 11.25 21.1252 11.25H22.8752C24.5002 11.25 25.8556 12.4961 25.9884 14.1172L26.1486 16.043C26.2463 17.207 25.5353 18.2344 24.5002 18.6055V24.0625C24.5002 24.582 24.0822 25 23.5627 25C23.0431 25 22.6252 24.582 22.6252 24.0625V18.75H21.3752V24.0625C21.3752 24.582 20.9572 25 20.4377 25C19.9181 25 19.5002 24.582 19.5002 24.0625ZM19.5002 7.5C19.5002 6.83696 19.7636 6.20107 20.2324 5.73223C20.7012 5.26339 21.3371 5 22.0002 5C22.6632 5 23.2991 5.26339 23.7679 5.73223C24.2368 6.20107 24.5002 6.83696 24.5002 7.5C24.5002 8.16304 24.2368 8.79893 23.7679 9.26777C23.2991 9.73661 22.6632 10 22.0002 10C21.3371 10 20.7012 9.73661 20.2324 9.26777C19.7636 8.79893 19.5002 8.16304 19.5002 7.5ZM12.3517 15.0391L11.4533 15.9375H17.5509L16.6525 15.0391C16.2853 14.6719 16.2853 14.0781 16.6525 13.7148C17.0197 13.3516 17.6134 13.3477 17.9767 13.7148L20.4767 16.2148C20.8439 16.582 20.8439 17.1758 20.4767 17.5391L17.9767 20.0391C17.6095 20.4062 17.0158 20.4062 16.6525 20.0391C16.2892 19.6719 16.2853 19.0781 16.6525 18.7148L17.5509 17.8164H11.4494L12.3478 18.7148C12.715 19.082 12.715 19.6758 12.3478 20.0391C11.9806 20.4023 11.3869 20.4062 11.0236 20.0391L8.5236 17.5391C8.15642 17.1719 8.15642 16.5781 8.5236 16.2148L11.0236 13.7148C11.3908 13.3477 11.9845 13.3477 12.3478 13.7148C12.7111 14.082 12.715 14.6758 12.3478 15.0391H12.3517Z" fill="white"/>
</g>
</g>
<defs>
<clipPath id="clip0_429_16979">
<rect width="20" height="20" fill="white" transform="translate(4 5)"/>
</clipPath>
<clipPath id="clip1_429_16979">
<rect width="25" height="20" fill="white" transform="translate(2 5)"/>
</clipPath>
</defs>
</svg>
