<svg width="24" height="24" viewBox="0 0 24 24" fill="none" xmlns="http://www.w3.org/2000/svg">
<g id="Chat Bubble/chat">
<path id="Vector" d="M16.1931 18.8658C16.336 18.8669 16.499 18.8785 16.8246 18.9018L18.7626 19.0402C19.5343 19.0953 19.9202 19.1229 20.2087 18.9861C20.462 18.866 20.666 18.662 20.7861 18.4087C20.9229 18.1202 20.8953 17.7343 20.8402 16.9626L20.7018 15.0246C20.6785 14.6989 20.6669 14.5361 20.6658 14.3931C20.6639 14.1607 20.6611 14.2438 20.6789 14.0121C20.6899 13.8695 20.7665 13.3279 20.9198 12.2445C20.9726 11.8706 21 11.4885 21 11.1C21 6.62649 17.3735 3 12.9 3C9.71965 3 6.9674 4.83291 5.64197 7.5M13.8 15.6C13.8 12.6177 11.3823 10.2 8.4 10.2C7.02324 10.2 5.76682 10.7152 4.81303 11.5634C3.70072 12.5525 3 13.9944 3 15.6C3 15.8913 3.02307 16.1772 3.06748 16.456C3.16295 17.0555 3.21068 17.3552 3.21896 17.4477C3.23137 17.5865 3.23003 17.5556 3.22967 17.695C3.22944 17.7878 3.22147 17.8994 3.20553 18.1226L3.10654 19.5084C3.06979 20.0229 3.05142 20.2801 3.14262 20.4725C3.22268 20.6413 3.35867 20.7773 3.52753 20.8574C3.71989 20.9486 3.97712 20.9302 4.49158 20.8935L5.8774 20.7945C6.10057 20.7785 6.21216 20.7706 6.30504 20.7703C6.44444 20.77 6.41347 20.7686 6.55232 20.781C6.64482 20.7893 6.94471 20.8371 7.54395 20.9325C7.82276 20.9769 8.10869 21 8.4 21C10.0056 21 11.4475 20.2993 12.4366 19.187C13.2848 18.2332 13.8 16.9768 13.8 15.6Z" stroke="#BB1865" strokeWidth="2" strokeLinecap="round" strokeLinejoin="round"/>
</g>
</svg>
