<svg width="28" height="29" viewBox="0 0 28 29" fill="none" xmlns="http://www.w3.org/2000/svg">
<circle cx="14" cy="14.5" r="14" fill="#015EB0"/>
<path d="M14 5C13.3086 5 12.75 5.55859 12.75 6.25V8.75C12.75 9.44141 13.3086 10 14 10C14.6914 10 15.25 9.44141 15.25 8.75V7.60547C18.7969 8.19922 21.5 11.2852 21.5 15C21.5 19.1406 18.1406 22.5 14 22.5C9.85938 22.5 6.5 19.1406 6.5 15C6.5 12.9023 7.35938 11.0039 8.75 9.64453C9.24219 9.16016 9.25 8.37109 8.76953 7.875C8.28906 7.37891 7.49609 7.375 7 7.85547C5.15234 9.67188 4 12.2031 4 15C4 20.5234 8.47656 25 14 25C19.5234 25 24 20.5234 24 15C24 9.47656 19.5234 5 14 5ZM11.5391 11.2109C11.1719 10.8438 10.5781 10.8438 10.2148 11.2109C9.85156 11.5781 9.84766 12.1719 10.2148 12.5352L13.3398 15.6602C13.707 16.0273 14.3008 16.0273 14.6641 15.6602C15.0273 15.293 15.0312 14.6992 14.6641 14.3359L11.5391 11.2109Z" fill="white"/>
</svg>
