<svg width="34" height="34" viewBox="0 0 34 34" fill="none" xmlns="http://www.w3.org/2000/svg">
<g clip-path="url(#clip0_429_16926)">
<path d="M30.8125 17C30.8125 13.3367 29.3573 9.82343 26.7669 7.23309C24.1766 4.64274 20.6633 3.1875 17 3.1875C13.3367 3.1875 9.82343 4.64274 7.23309 7.23309C4.64274 9.82343 3.1875 13.3367 3.1875 17C3.1875 20.6633 4.64274 24.1766 7.23309 26.7669C9.82343 29.3573 13.3367 30.8125 17 30.8125C20.6633 30.8125 24.1766 29.3573 26.7669 26.7669C29.3573 24.1766 30.8125 20.6633 30.8125 17ZM0 17C0 12.4913 1.79107 8.1673 4.97919 4.97919C8.1673 1.79107 12.4913 0 17 0C21.5087 0 25.8327 1.79107 29.0208 4.97919C32.2089 8.1673 34 12.4913 34 17C34 21.5087 32.2089 25.8327 29.0208 29.0208C25.8327 32.2089 21.5087 34 17 34C12.4913 34 8.1673 32.2089 4.97919 29.0208C1.79107 25.8327 0 21.5087 0 17ZM11.7938 21.1238C12.8031 22.2129 14.5297 23.375 17 23.375C19.4703 23.375 21.1969 22.2129 22.2062 21.1238C22.8039 20.4797 23.8133 20.4332 24.4574 21.0309C25.1016 21.6285 25.148 22.6379 24.5504 23.282C23.0895 24.8625 20.566 26.5625 17.0066 26.5625C13.4473 26.5625 10.9172 24.8691 9.46289 23.282C8.86523 22.6379 8.90508 21.6285 9.55586 21.0309C10.2066 20.4332 11.2094 20.473 11.807 21.1238H11.7938ZM9.58906 13.8125C9.58906 13.2489 9.81295 12.7084 10.2115 12.3099C10.61 11.9114 11.1505 11.6875 11.7141 11.6875C12.2776 11.6875 12.8181 11.9114 13.2167 12.3099C13.6152 12.7084 13.8391 13.2489 13.8391 13.8125C13.8391 14.3761 13.6152 14.9166 13.2167 15.3151C12.8181 15.7136 12.2776 15.9375 11.7141 15.9375C11.1505 15.9375 10.61 15.7136 10.2115 15.3151C9.81295 14.9166 9.58906 14.3761 9.58906 13.8125ZM22.3391 11.6875C22.9026 11.6875 23.4431 11.9114 23.8417 12.3099C24.2402 12.7084 24.4641 13.2489 24.4641 13.8125C24.4641 14.3761 24.2402 14.9166 23.8417 15.3151C23.4431 15.7136 22.9026 15.9375 22.3391 15.9375C21.7755 15.9375 21.235 15.7136 20.8365 15.3151C20.4379 14.9166 20.2141 14.3761 20.2141 13.8125C20.2141 13.2489 20.4379 12.7084 20.8365 12.3099C21.235 11.9114 21.7755 11.6875 22.3391 11.6875Z" fill="#008344"/>
</g>
<defs>
<clipPath id="clip0_429_16926">
<rect width="34" height="34" fill="white"/>
</clipPath>
</defs>
</svg>
