<svg width="28" height="29" viewBox="0 0 28 29" fill="none" xmlns="http://www.w3.org/2000/svg">
<circle cx="14" cy="14.5" r="14" fill="#B06001"/>
<g clip-path="url(#clip0_429_16947)">
<path d="M9.875 9.375V20.625H11.75V9.375H9.875ZM8 9.375C8 8.33984 8.83984 7.5 9.875 7.5H11.75C12.7852 7.5 13.625 8.33984 13.625 9.375V20.625C13.625 21.6602 12.7852 22.5 11.75 22.5H9.875C8.83984 22.5 8 21.6602 8 20.625V9.375ZM16.75 9.375V20.625H18.625V9.375H16.75ZM14.875 9.375C14.875 8.33984 15.7148 7.5 16.75 7.5H18.625C19.6602 7.5 20.5 8.33984 20.5 9.375V20.625C20.5 21.6602 19.6602 22.5 18.625 22.5H16.75C15.7148 22.5 14.875 21.6602 14.875 20.625V9.375Z" fill="white"/>
</g>
<defs>
<clipPath id="clip0_429_16947">
<rect width="12.5" height="20" fill="white" transform="translate(8 5)"/>
</clipPath>
</defs>
</svg>
