<svg width="20" height="20" viewBox="0 0 20 20" fill="none" xmlns="http://www.w3.org/2000/svg">
<g opacity="0.5">
<path d="M7.7777 16.4529C6.46024 16.6735 5.12886 16.7235 3.81681 16.6022C3.70426 16.5918 3.6047 16.5433 3.53068 16.4692C3.45665 16.3952 3.40816 16.2957 3.39775 16.1831C3.27637 14.8711 3.32641 13.5397 3.54702 12.2222M12.2221 16.4529C13.5396 16.6735 14.871 16.7235 16.183 16.6022C16.2956 16.5918 16.3951 16.5433 16.4692 16.4692C16.5432 16.3952 16.5917 16.2957 16.6021 16.1831C16.7235 14.8711 16.6734 13.5397 16.4528 12.2222M3.54702 7.77777C3.32641 6.46032 3.27637 5.12894 3.39775 3.81689C3.40816 3.70434 3.45665 3.60478 3.53068 3.53075C3.6047 3.45673 3.70426 3.40824 3.81681 3.39783C5.12886 3.27645 6.46024 3.32648 7.7777 3.54709M12.2221 3.54709C13.5396 3.32648 14.871 3.27645 16.183 3.39783C16.2956 3.40824 16.3951 3.45673 16.4692 3.53075C16.5432 3.60478 16.5917 3.70434 16.6021 3.81689C16.7235 5.12894 16.6734 6.46032 16.4528 7.77777" stroke="#101828" strokeWidth="2" strokeLinecap="round" strokeLinejoin="round"/>
</g>
</svg>
