<svg width="16" height="16" viewBox="0 0 16 16" fill="none" xmlns="http://www.w3.org/2000/svg">
<path d="M11.3333 2.35677C12.1303 2.81785 12.6666 3.67964 12.6666 4.66669C12.6666 5.65374 12.1303 6.51554 11.3333 6.97662M13.9999 13.8216C14.3984 13.5911 14.6666 13.1602 14.6666 12.6667C14.6666 11.6796 14.1303 10.8179 13.3333 10.3568M9.33325 4.66667C9.33325 6.13943 8.13934 7.33333 6.66659 7.33333C5.19383 7.33333 3.99992 6.13943 3.99992 4.66667C3.99992 3.19391 5.19383 2 6.66659 2C8.13934 2 9.33325 3.19391 9.33325 4.66667ZM3.99992 10H9.33325C10.806 10 11.9999 11.1939 11.9999 12.6667C11.9999 13.403 11.403 14 10.6666 14H2.66659C1.93021 14 1.33325 13.403 1.33325 12.6667C1.33325 11.1939 2.52716 10 3.99992 10Z" stroke="#00539F" stroke-width="1.5" stroke-linecap="round" stroke-linejoin="round"/>
</svg>
