<svg width="16" height="16" viewBox="0 0 16 16" fill="none" xmlns="http://www.w3.org/2000/svg">
<path d="M14.6187 7.33329H11.282C10.9421 7.33329 10.6666 7.60881 10.6666 7.94868C10.6666 9.08157 9.7482 9.99996 8.6153 9.99996H7.38454C6.25164 9.99996 5.33325 9.08157 5.33325 7.94868C5.33325 7.60881 5.05773 7.33329 4.71787 7.33329H1.38113M14.6187 7.33329C14.6075 7.29277 14.5945 7.25277 14.5795 7.21344C14.5425 7.1162 14.4902 7.02458 14.3855 6.8414L13.2284 4.81643C12.781 4.03345 12.5573 3.64196 12.2429 3.35714C11.9648 3.10515 11.6366 2.9147 11.2798 2.79824C10.8766 2.66663 10.4257 2.66663 9.52388 2.66663H6.47596C5.57416 2.66663 5.12326 2.66663 4.72001 2.79824C4.36323 2.9147 4.03505 3.10515 3.75693 3.35714C3.44258 3.64196 3.21888 4.03345 2.77146 4.81643L1.61433 6.8414C1.50965 7.02459 1.45731 7.11619 1.42033 7.21344C1.40537 7.25277 1.39229 7.29277 1.38113 7.33329M14.6187 7.33329C14.632 7.38171 14.6426 7.43088 14.6504 7.48056C14.6666 7.58334 14.6666 7.68884 14.6666 7.89983V7.99996C14.6666 9.8668 14.6666 10.8002 14.3033 11.5133C13.9837 12.1405 13.4738 12.6504 12.8466 12.97C12.1335 13.3333 11.2001 13.3333 9.33325 13.3333H6.66659C4.79974 13.3333 3.86632 13.3333 3.15328 12.97C2.52608 12.6504 2.01614 12.1405 1.69656 11.5133C1.33325 10.8002 1.33325 9.8668 1.33325 7.99996V7.89983C1.33325 7.68884 1.33325 7.58334 1.34939 7.48056C1.35719 7.43088 1.36779 7.38171 1.38113 7.33329" stroke="#00539F" stroke-width="1.5" stroke-linecap="round" stroke-linejoin="round"/>
</svg>
