<svg width="16" height="16" viewBox="0 0 16 16" fill="none" xmlns="http://www.w3.org/2000/svg">
<path d="M6.62853 2.85718C5.45415 2.66052 4.26736 2.61592 3.09779 2.72412C2.99747 2.7334 2.90872 2.77663 2.84273 2.84261M2.8573 6.62841C2.66065 5.45403 2.61605 4.26723 2.72424 3.09767C2.73352 2.99734 2.77675 2.9086 2.84273 2.84261M2.84273 2.84261L8.00008 7.99996L8.00008 13.3333M9.37163 2.85718C10.546 2.66052 11.7328 2.61592 12.9024 2.72412C13.0027 2.7334 13.0914 2.77663 13.1574 2.84261M13.1429 6.62841C13.3395 5.45403 13.3841 4.26723 13.2759 3.09767C13.2666 2.99734 13.2234 2.9086 13.1574 2.84261M13.1574 2.84261L10.0001 5.99996" stroke="#00539F" stroke-width="1.5" stroke-linecap="round" stroke-linejoin="round"/>
</svg>
