<svg width="32" height="32" viewBox="0 0 32 32" fill="none" xmlns="http://www.w3.org/2000/svg">
<g id="NFT/ add">
<path id="Vector" d="M14.6664 27.9999L14.3396 27.9999C13.3158 27.9999 12.5787 27.9999 11.9852 27.9526M28.3937 14.6666L25.3185 14.6666C24.0803 14.6666 23.4613 14.6666 22.9393 14.7123C17.138 15.2199 12.5384 19.8194 12.0309 25.6207C11.9858 26.136 11.9852 26.7459 11.9852 27.9526M28.3937 14.6666C28.1934 13.9747 27.7873 13.2438 27.0627 11.9396L25.0903 8.38917C24.2028 6.79171 23.7591 5.99298 23.1279 5.41137C22.5696 4.89684 21.9078 4.50745 21.1869 4.26925C20.372 4 19.4582 4 17.6308 4L14.3396 4C12.5122 4 11.5984 4 10.7835 4.26925C10.0626 4.50745 9.40081 4.89684 8.84247 5.41137C8.21134 5.99298 7.7676 6.79171 6.88012 8.38917L4.9542 11.8558C4.11389 13.3684 3.69374 14.1247 3.52902 14.9256C3.38323 15.6344 3.38323 16.3655 3.52902 17.0744C3.69374 17.8753 4.11389 18.6316 4.9542 20.1441L6.88012 23.6108C7.7676 25.2082 8.21134 26.007 8.84247 26.5886C9.40081 27.1031 10.0626 27.4925 10.7835 27.7307C11.1419 27.8491 11.5193 27.9154 11.9852 27.9526M28.3937 14.6666C28.4212 14.7617 28.4448 14.856 28.4648 14.9509C28.6117 15.6469 28.6179 16.3652 28.4831 17.0636C28.4657 17.1536 28.4451 17.2432 28.421 17.3333M23.9851 29.3333V25.3333M23.9851 25.3333V21.3334M23.9851 25.3333L19.9851 25.3333M23.9851 25.3333H27.9851M11.9852 13.3333C11.2488 13.3333 10.6519 12.7364 10.6519 12C10.6519 11.2636 11.2488 10.6667 11.9852 10.6667C12.7216 10.6667 13.3185 11.2636 13.3185 12C13.3185 12.7364 12.7216 13.3333 11.9852 13.3333Z" stroke="white" strokeWidth="2" strokeLinecap="round" strokeLinejoin="round"/>
</g>
</svg>
