<svg width="16" height="16" viewBox="0 0 16 16" fill="none" xmlns="http://www.w3.org/2000/svg">
<path d="M6.62853 2.85721C5.45415 2.66055 4.26736 2.61595 3.09779 2.72415C2.99747 2.73343 2.90872 2.77666 2.84273 2.84264M2.8573 6.62844C2.66065 5.45406 2.61605 4.26726 2.72424 3.0977C2.73352 2.99737 2.77675 2.90863 2.84273 2.84264M2.84273 2.84264L8.00008 7.99999L8.00008 13.3333M9.37163 2.85721C10.546 2.66055 11.7328 2.61595 12.9024 2.72415C13.0027 2.73343 13.0914 2.77666 13.1574 2.84264M13.1429 6.62844C13.3395 5.45406 13.3841 4.26726 13.2759 3.0977C13.2666 2.99737 13.2234 2.90863 13.1574 2.84264M13.1574 2.84264L10.0001 5.99999" stroke="#303A47" strokeWidth="1.5" strokeLinecap="round" strokeLinejoin="round"/>
</svg>
