<svg width="32" height="32" viewBox="0 0 32 32" fill="none" xmlns="http://www.w3.org/2000/svg">
<g id="Server">
<path id="Vector" d="M22.6667 16H9.33333M22.6667 16C23.2858 16 23.5954 16 23.8558 16.0293C26.0194 16.2731 27.7269 17.9806 27.9707 20.1442C28 20.4046 28 20.7142 28 21.3333C28 21.9525 28 22.2621 27.9707 22.5225C27.7269 24.6861 26.0194 26.3935 23.8558 26.6373C23.5954 26.6667 23.2858 26.6667 22.6667 26.6667H9.33333C8.71417 26.6667 8.40459 26.6667 8.14417 26.6373C5.98061 26.3935 4.27312 24.6861 4.02934 22.5225C4 22.2621 4 21.9525 4 21.3333C4 20.7142 4 20.4046 4.02934 20.1442C4.27312 17.9806 5.98061 16.2731 8.14417 16.0293C8.40459 16 8.71417 16 9.33333 16M22.6667 16C23.2858 16 23.5954 16 23.8558 15.9707C26.0194 15.7269 27.7269 14.0194 27.9707 11.8558C28 11.5954 28 11.2858 28 10.6667C28 10.0475 28 9.73793 27.9707 9.4775C27.7269 7.31394 26.0194 5.60645 23.8558 5.36268C23.5954 5.33333 23.2858 5.33333 22.6667 5.33333H9.33333C8.71417 5.33333 8.40459 5.33333 8.14417 5.36268C5.98061 5.60645 4.27312 7.31394 4.02934 9.4775C4 9.73793 4 10.0475 4 10.6667C4 11.2858 4 11.5954 4.02934 11.8558C4.27312 14.0194 5.98061 15.7269 8.14417 15.9707C8.40459 16 8.71417 16 9.33333 16M22.668 10.6667H22.6667M22.668 21.3333H22.6667M17.3347 10.6667H17.3333M17.3347 21.3333H17.3333" stroke="white" strokeWidth="2" strokeLinecap="round" strokeLinejoin="round"/>
</g>
</svg>
