<svg width="32" height="32" viewBox="0 0 32 32" fill="none" xmlns="http://www.w3.org/2000/svg">
<g id="Settings/03">
<g id="Vector">
<path d="M14.6667 16C14.6667 15.2636 15.2636 14.6667 16 14.6667C16.7364 14.6667 17.3333 15.2636 17.3333 16C17.3333 16.7364 16.7364 17.3333 16 17.3333C15.2636 17.3333 14.6667 16.7364 14.6667 16Z" stroke="white" stroke-width="2" stroke-linecap="round" stroke-linejoin="round"/>
<path d="M11.4153 5.75925C13.0855 4.79558 13.9206 4.31374 14.8084 4.12515C15.594 3.95828 16.4059 3.95828 17.1914 4.12515C18.0792 4.31374 18.9143 4.79558 20.5845 5.75925L22.582 6.91177C24.2522 7.87544 25.0873 8.35728 25.6946 9.03137C26.232 9.62781 26.6379 10.3305 26.8861 11.0938C27.1666 11.9565 27.1666 12.9201 27.1666 14.8475V17.1525C27.1666 19.0799 27.1666 20.0435 26.8861 20.9062C26.6379 21.6695 26.232 22.3722 25.6946 22.9686C25.0873 23.6427 24.2522 24.1246 22.582 25.0882L20.5845 26.2407C18.9143 27.2044 18.0792 27.6863 17.1914 27.8748C16.4059 28.0417 15.594 28.0417 14.8084 27.8748C13.9206 27.6863 13.0855 27.2044 11.4153 26.2407L9.41784 25.0882C7.74766 24.1246 6.91256 23.6427 6.30522 22.9686C5.76784 22.3722 5.36191 21.6695 5.11373 20.9062C4.83325 20.0435 4.83325 19.0799 4.83325 17.1525V14.8475C4.83325 12.9201 4.83325 11.9565 5.11373 11.0938C5.36191 10.3305 5.76784 9.62781 6.30522 9.03137C6.91256 8.35728 7.74766 7.87544 9.41784 6.91177L11.4153 5.75925Z" stroke="white" stroke-width="2" stroke-linecap="round" stroke-linejoin="round"/>
</g>
</g>
</svg>
