<svg width="28" height="29" viewBox="0 0 28 29" fill="none" xmlns="http://www.w3.org/2000/svg">
<circle cx="14" cy="14.5" r="14" fill="#019BB0"/>
<g clip-path="url(#clip0_429_16955)">
<path d="M15.3906 5C20.1443 5 24 8.85566 24 13.6094C24 14.1029 23.6029 14.5 23.1094 14.5C22.6158 14.5 22.2188 14.1029 22.2188 13.6094C22.2188 9.83906 19.1609 6.78125 15.3906 6.78125C14.8971 6.78125 14.5 6.38418 14.5 5.89062C14.5 5.39707 14.8971 5 15.3906 5ZM15.6875 12.125C16.0024 12.125 16.3045 12.2501 16.5272 12.4728C16.7499 12.6955 16.875 12.9976 16.875 13.3125C16.875 13.6274 16.7499 13.9295 16.5272 14.1522C16.3045 14.3749 16.0024 14.5 15.6875 14.5C15.3726 14.5 15.0705 14.3749 14.8478 14.1522C14.6251 13.9295 14.5 13.6274 14.5 13.3125C14.5 12.9976 14.6251 12.6955 14.8478 12.4728C15.0705 12.2501 15.3726 12.125 15.6875 12.125ZM14.5 9.45312C14.5 8.95957 14.8971 8.5625 15.3906 8.5625C18.1775 8.5625 20.4375 10.8225 20.4375 13.6094C20.4375 14.1029 20.0404 14.5 19.5469 14.5C19.0533 14.5 18.6562 14.1029 18.6562 13.6094C18.6562 11.8059 17.1941 10.3438 15.3906 10.3438C14.8971 10.3438 14.5 9.94668 14.5 9.45312ZM17.209 15.6393C17.6283 15.1271 18.3334 14.9527 18.942 15.2162L23.0982 16.9975C23.7514 17.2758 24.115 17.9809 23.9666 18.6711L23.076 22.8273C22.9275 23.5102 22.3227 24 21.625 24C21.3986 24 21.1723 23.9963 20.9496 23.9852H20.9459C20.5748 23.9703 20.2111 23.9443 19.8475 23.9035C11.5016 23.0203 5 15.9547 5 7.375C5 6.67363 5.48984 6.06875 6.17266 5.92402L10.3289 5.0334C11.0229 4.88496 11.7242 5.24863 12.0025 5.90176L13.7838 10.058C14.0436 10.6666 13.8729 11.3717 13.3607 11.791L11.8541 13.023C12.8449 14.7301 14.2699 16.1551 15.977 17.1459L17.209 15.6393ZM22.1742 18.5375L18.4484 16.9418L17.3574 18.2703C16.8045 18.9457 15.8434 19.1201 15.0863 18.6822C13.1084 17.5355 11.4607 15.8879 10.3141 13.91C9.87617 13.1529 10.0506 12.1918 10.726 11.6389L12.0582 10.5479L10.4625 6.82207L6.78496 7.61621C6.91113 15.6207 13.3793 22.0889 21.3838 22.2188L22.1742 18.5375Z" fill="white"/>
</g>
<defs>
<clipPath id="clip0_429_16955">
<rect width="19" height="19" fill="white" transform="translate(5 5)"/>
</clipPath>
</defs>
</svg>
